<?xml version="1.0" encoding="UTF-8" standalone="no"?>
<!-- Created with Inkscape (http://www.inkscape.org/) -->

<svg
   width="818.5083mm"
   height="567.07208mm"
   viewBox="0 0 818.50828 567.07208"
   version="1.1"
   id="svg1"
   inkscape:version="1.3 (0e150ed6c4, 2023-07-21)"
   sodipodi:docname="diskclub-fdd312-smooth-pirate.svg"
   inkscape:export-filename="diskclub-smooth-pirate.png"
   inkscape:export-xdpi="96"
   inkscape:export-ydpi="96"
   xmlns:inkscape="http://www.inkscape.org/namespaces/inkscape"
   xmlns:sodipodi="http://sodipodi.sourceforge.net/DTD/sodipodi-0.dtd"
   xmlns="http://www.w3.org/2000/svg"
   xmlns:svg="http://www.w3.org/2000/svg">
  <sodipodi:namedview
     id="namedview1"
     pagecolor="#ffffff"
     bordercolor="#000000"
     borderopacity="0.25"
     inkscape:showpageshadow="2"
     inkscape:pageopacity="0.0"
     inkscape:pagecheckerboard="0"
     inkscape:deskcolor="#d1d1d1"
     inkscape:document-units="mm"
     showgrid="false"
     inkscape:lockguides="false"
     inkscape:zoom="0.13181247"
     inkscape:cx="2082.504"
     inkscape:cy="997.62944"
     inkscape:window-width="1920"
     inkscape:window-height="1043"
     inkscape:window-x="0"
     inkscape:window-y="0"
     inkscape:window-maximized="1"
     inkscape:current-layer="g13"
     inkscape:export-bgcolor="#ffffffff">
    <inkscape:grid
       id="grid1"
       units="mm"
       originx="169.97249"
       originy="-328.32028"
       spacingx="0.99999998"
       spacingy="1"
       empcolor="#0099e5"
       empopacity="0.30196078"
       color="#0099e5"
       opacity="0.14901961"
       empspacing="5"
       dotted="false"
       gridanglex="30"
       gridanglez="30"
       visible="false" />
  </sodipodi:namedview>
  <defs
     id="defs1">
    <rect
       x="266.60053"
       y="-1936.8588"
       width="717.55304"
       height="263.08532"
       id="rect4" />
    <rect
       x="77.406372"
       y="-2210.3194"
       width="3027.2055"
       height="757.9127"
       id="rect3" />
    <rect
       x="31.05738"
       y="-522.59673"
       width="1393.9889"
       height="387.52084"
       id="rect2" />
  </defs>
  <g
     inkscape:label="Layer 1"
     inkscape:groupmode="layer"
     id="layer1"
     transform="translate(44.97188,-86.868088)">
    <g
       id="g13"
       transform="matrix(1.1342379,0,0,1.0973984,-19.557985,13.393252)"
       style="stroke-width:0.896321">
      <path
         d="m 67.113526,367.13001 7.134801,3.56734 -9.810295,1.78367 6.242865,5.35109 c -12.679324,6.73938 -22.398041,-8.10769 -24.971556,-18.72868 -9.705894,-0.55301 -12.149038,-6.83286 -11.399485,-16.05326 1.111787,-13.67672 6.877927,-28.28529 -2.751563,-40.8278 -8.989762,-11.70924 -26.5501105,-6.7836 -31.27803771,6.04625 -2.44040759,6.62242 -0.9686737,13.6911 2.88460001,19.49807 1.8765132,2.82764 5.7428553,5.58643 5.873856,9.2283 0.2667163,7.38331 -7.4552619,12.8587 -4.4092788,20.99228 3.0464373,8.13544 11.3934215,3.18415 13.4327165,-2.45134 l 4.643434,15.16142 -1.66984,10.7021 5.75293,11.59392 0.191965,16.05335 h -3.567359 l 6.242843,4.45918 v 8.02666 h 24.971545 v 0.89184 l -19.620426,2.6755 v 2.6756 l 8.026463,0.89182 -16.945034,7.13477 c 7.668322,8.919 26.071931,-1.27754 34.781851,-4.45917 v 0.89173 l -22.296073,11.59402 c 9.642558,0.6001 17.795043,-1.95327 26.755318,-5.35109 l -14.269539,13.37768 v 1.78368 c 10.044986,0.84073 19.462754,-7.3754 26.755307,-13.37769 l -4.459245,19.62061 c 7.081156,-1.72576 10.663304,-9.97004 15.161412,-15.16134 l -3.567361,16.05317 14.269373,-12.48585 c 1.248837,5.34554 2.698917,10.18723 8.026607,12.48585 l 1.7836,-9.81035 7.13481,6.24294 v -10.70202 l 7.13481,9.81018 v -10.70211 h 1.7836 l 7.13475,9.81027 2.67547,-16.05318 c 7.21261,5.0739 28.76691,22.24921 30.52282,1.78375 0.27379,-3.1998 -0.79197,-6.61945 -1.09203,-9.81033 4.25271,0.73037 13.38253,1.62287 13.80029,7.27611 0.29269,3.95765 -2.55564,7.3237 -2.20642,11.45265 5.52133,-3.90589 5.99054,-8.83044 6.24286,-15.16144 12.51457,-0.28913 6.47699,-10.45902 -1.7836,-13.3776 -0.29583,-12.4123 2.1441,-25.01621 8.74313,-35.67285 3.11473,-5.02978 12.89512,-12.22487 13.48944,-18.03201 0.54681,-5.34184 -8.52196,-15.6732 -10.63867,-21.21011 21.18326,-10.64688 17.56979,-41.1918 -2.01698,-52.1004 -6.30497,-3.51144 -13.26615,-0.95645 -19.31742,-3.72442 -8.57176,-3.92076 -13.10095,-11.06872 -23.25766,-12.39422 -6.32537,-0.82535 -12.81566,3.22888 -18.72862,1.73187 -6.41208,-1.6233 -11.78232,-7.23458 -17.83675,-9.9117 -15.469578,-6.83999 -36.100438,-11.08652 -52.618795,-5.88261 -36.630578,11.54014 -20.304196,54.86364 -1.45898,74.19941 5.442233,5.58382 15.823717,9.0187 20.058649,15.05739 4.397481,6.27073 -4.35397,13.02703 -9.681259,13.5371 m 22.29606,-57.07813 -7.134646,-7.13467 h -0.892434 l 2.675484,8.91842 c -4.984878,-1.39965 -9.896519,-5.69232 -6.242924,2.6755 -5.862441,-4.09877 -8.638404,-5.03793 -4.459245,2.67559 -5.086604,-2.80611 -9.007787,-7.82966 -14.31036,-10.08206 -3.189085,-1.35462 -7.803722,-0.16725 -10.188577,-3.08945 -2.531428,-3.10112 -0.907758,-7.26604 -1.404221,-10.83859 -0.9291,-6.69913 -4.805342,-10.92867 -0.90777,-17.78094 8.29781,-14.58672 24.49973,-9.07686 34.237798,-0.50515 2.02867,1.78569 5.459291,2.96532 6.720394,5.45768 2.44048,4.82317 -2.787207,10.47977 -2.685154,15.43155 0.107057,5.30234 4.630373,8.85362 4.590003,14.27204 m -8.415511,-30.64679 c -6.029631,-1.97664 -12.373255,8.58862 -5.469367,11.13116 6.585404,2.42548 11.807733,-9.05322 5.469367,-11.13116 m 92.248538,44.91628 c -16.03228,-6.47537 -31.55638,-25.52681 -40.13271,-40.13291 25.54307,-11.64221 45.12628,16.64932 40.13271,40.13291 M 50.166782,301.13346 c 1.726405,0.55891 3.458232,1.22676 5.311148,1.03564 16.69766,-1.72138 0.368998,-22.13044 -4.246823,-7.22561 -0.610522,1.97126 -0.741919,4.1576 -1.06457,6.18989 m 17.836747,-8.0266 c -0.670331,3.15407 -1.785424,7.85186 0.09123,10.81363 3.329595,5.27393 10.905793,-2.12347 12.401195,-5.46263 l -12.485778,-5.351 M 6.4728664,320.75389 c -9.5988742,-9.33715 3.8762556,-23.46261 15.0787256,-19.49015 19.418233,6.88563 8.714563,33.75858 8.874353,47.6286 0.03142,3.21223 4.414947,16.70582 0.491738,17.98132 -5.070651,1.64861 -6.60949,-10.35183 -6.966596,-13.19116 -1.687868,-13.41635 7.860273,-32.39053 0.441375,-44.29521 -7.815986,-12.54389 -19.347961,1.31284 -17.9205262,11.3666 m 12.4857522,32.99827 c -5.590768,-6.35108 -1.946297,-12.42709 -3.239041,-19.47862 -0.653017,-3.5608 -3.560515,-6.46954 -4.626667,-9.964 -1.506258,-4.9384 -0.484639,-9.28705 -0.161291,-14.25774 21.80529,-1.5723 5.810055,31.17494 8.026615,43.70036 m 149.829356,-8.02657 8.02654,-8.91853 c -11.65526,20.13473 -31.11032,24.62341 -51.72687,16.05328 7.6886,-8.48734 14.95097,-0.77156 22.29598,3.56733 l -7.13447,-12.48583 10.70192,3.56749 -1.7836,5.35101 c 11.4865,1.59985 10.67684,-6.47909 8.02645,-14.26952 l -3.5672,0.89192 -7.13482,-8.91842 c -21.07523,-1.58128 -43.80701,-23.11357 -65.104416,-8.91851 -5.646473,1.2993 -4.523688,21.76416 -4.459093,27.64719 h -1.783739 c -0.654587,-5.33813 1.312794,-10.16973 0.855931,-15.3144 -0.336742,-3.79595 -2.946924,-8.18123 -0.895587,-11.87968 4.708645,-8.48801 21.551769,-8.71547 29.470124,-6.97187 10.34868,2.27878 18.86889,7.46289 28.85173,10.52366 5.49983,1.68633 10.48164,1.14724 15.73466,4.16726 7.43173,4.2725 12.4882,11.32288 19.62616,15.9077 m -42.80844,-16.9451 v 1.78375 l -16.05316,10.70209 v -5.35109 l -2.67547,0.89192 -4.45915,-9.81034 -3.567385,0.89192 0.891015,-4.45926 -3.567287,-2.67551 c 10.475647,0.12523 20.176287,3.23452 29.430737,8.0266 m -120.3986615,-7.13477 -0.892504,0.89193 0.892504,-0.89193 m 189.0704315,0 v 3.56741 c -6.51247,0.0992 -12.027,5.26714 -17.83689,0 l 17.83689,-3.56741 m 0,6.24294 -0.89251,4.45925 h -0.8925 l 1.78383,-4.45925 M 91.194113,330.5644 v 0.89184 l -10.702013,8.02658 3.567452,-3.56743 -0.892515,-3.56732 8.026512,-1.78367 m 1.78361,1.78367 c 4.510533,3.83284 7.682701,8.77714 12.009461,12.73092 4.83703,4.41993 10.62814,6.162 12.07035,13.13261 l -11.59387,4.45923 v 0.89186 l 9.81006,-1.78368 c -0.52399,12.13244 -16.508219,10.89431 -25.863281,14.2695 l 12.014401,-20.76818 -8.447121,-22.93217 m 86.211461,1.48632 -0.29663,0.59421 0.29663,-0.59421 m 14.56669,-0.59424 v 2.67559 h -0.89252 l 0.89252,-2.67559 m -16.05259,1.78366 -0.89252,0.89193 0.89252,-0.89193 m 8.91834,0 9.81029,32.9983 c -11.626,9.60567 -15.79808,23.23718 -19.25703,37.45744 -0.86811,3.56827 -0.51298,15.16076 -5.21052,15.92124 -9.78638,1.58438 -8.56341,-17.81628 -7.88152,-23.05601 2.77154,-21.29238 4.70707,-48.60406 22.53878,-63.32097 m -46.37565,3.56744 c -6.08323,6.21988 -15.81522,8.86722 -24.07975,10.70217 1.51539,-11.27462 15.24055,-11.20403 24.07975,-10.70217 m -45.483946,9.81025 -9.810278,-8.02659 c 5.485656,-0.4194 7.410006,3.67332 9.810278,8.02659 m -11.59388,-2.6755 3.567363,6.24292 -3.567363,-6.24292 m -72.239315,3.56742 c 3.113719,9.54257 -5.4132803,7.23351 0,0 m 82.94133,2.6755 2.675626,4.45916 -5.351112,1.78376 2.675486,-6.24292 m -7.134652,0.89184 1.7836,6.2429 -8.026447,2.67559 v -0.89191 l 6.242847,-8.02658 m 77.590123,4.45924 c -2.16597,9.66351 -9.83043,20.13767 -14.96559,28.59216 -2.97918,4.90496 -3.84903,8.6029 -10.00595,9.75721 -0.61054,-7.89362 -7.56714,-13.02804 -12.48578,-18.72884 11.72339,0.84955 12.0001,-7.98281 19.32915,-14.17993 4.56877,-3.86301 12.38964,-4.78099 18.12817,-5.4406 m -124.857816,4.45942 c 9.207548,4.23133 -3.428654,16.01654 -8.90534,17.716 -3.533219,1.0964 -6.293276,-1.64055 -3.705994,-4.88203 4.427768,-5.547 9.343808,-5.14306 12.611334,-12.83397 m 7.134728,8.0266 c 7.268325,12.01703 4.128182,14.66514 -1.783597,25.86352 l 10.702018,-6.243 5.351119,3.56733 c -2.512854,6.58844 -4.710379,11.10788 -10.702168,15.16143 l 0.892502,-2.67559 h -2.675473 l 0.890933,3.56742 h -0.890933 -0.892515 c -0.970163,-7.38764 -17.506148,5.66924 -16.920238,-6.24292 0.07866,-1.56456 0.463416,-2.95588 0.866625,-4.45924 h 10.702181 c -2.48942,-1.27871 -5.32438,-2.03027 -7.716556,-3.45984 -13.368366,-7.98886 5.77709,-17.70658 10.392039,-25.07911 h 1.783587 m 69.563674,9.81018 v 0.89192 L 95.652886,377.8327 c 5.302564,-2.04782 15.327554,-0.37822 20.512294,1.78367 m -24.971541,0.89192 c -0.03143,8.95533 -1.337279,13.33102 -10.702017,15.16142 l -0.892503,-3.5675 5.35105,-4.45909 -3.567451,0.89184 c 1.279362,-6.71141 2.12845,-10.55357 9.810297,-8.02667 m 28.538895,-0.89183 8.0267,9.81025 h -0.89252 l -7.13479,-9.81025 m -16.94487,2.67558 v 6.24284 l -4.459257,2.67559 v -8.91869 h 4.459257 m -39.241076,3.56735 -8.026615,1.78375 0.892445,-4.45917 7.134799,2.67542 m 56.185927,-0.89184 -7.13456,11.59394 -0.89252,-13.37761 8.02647,1.78367 m 8.91855,5.35108 c 5.0144,10.12275 4.04699,37.618 -9.81044,41.02479 3.13764,-7.51423 7.98388,-13.769 7.13481,-22.29611 h -1.78361 c -1.86331,8.39759 -4.70849,22.93504 -16.01846,22.04054 -5.73906,-0.45388 -8.15492,-5.45046 -14.304294,-4.2036 l -1.78361,-7.13476 -8.918314,-0.8919 -1.783749,-4.45926 -8.026534,0.8919 5.350957,-7.13466 16.945091,9.81017 c -0.790458,-6.72426 -15.218686,-11.37842 -14.013354,-15.99628 1.29911,-4.97725 8.884426,-3.07581 11.632824,-0.8866 5.554188,4.42394 9.253883,25.90653 18.404083,22.99385 12.37311,-3.93875 12.47162,-24.10683 16.9746,-33.75815 m -65.996383,1.18918 c 0.689997,0 0.136902,0.44379 -0.296608,0.29755 l 0.296608,-0.29755 m -14.269364,5.94557 v 1.78375 l 7.134636,1.78358 v -5.35092 l -7.134636,1.78359 m 30.322503,-0.89182 -5.350957,11.59399 5.350957,-11.59399 m 78.481994,3.56742 1.78376,14.26942 c -6.42962,2.26483 -16.5894,7.55348 -8.02666,14.26961 l -4.4591,13.37767 h -1.78377 l -2.67548,-24.9717 6.24285,-5.35108 2.6755,0.89191 0.89249,-4.45926 h 5.35096 v -8.02657 m -47.26745,8.9184 -1.78368,8.91843 c -5.83593,-2.98328 -3.45021,-7.3457 1.78368,-8.91843 m -62.428855,4.45918 v 0.89175 l -11.593905,3.56741 0.890944,-4.45925 h 10.702181 m 140.019055,17.83694 c -11.15605,1.96857 -26.49135,-3.3995 -37.45733,-6.24292 7.72513,-10.20402 13.289,-0.10255 21.53747,2.04505 6.48762,1.68838 10.79258,-1.85123 15.91986,4.19787 m -90.075994,-4.45925 1.783781,2.67566 c -2.007374,-0.42192 -2.780599,-0.76735 -1.783781,-2.67566 m 59.753334,2.67566 c 1.14223,2.02566 2.30247,4.01717 2.931,6.27721 4.27351,15.36475 -17.16349,12.09039 -8.09883,-1.63884 1.35396,-2.05171 3.16323,-3.30224 5.16783,-4.63837 m -57.07783,1.78359 c 6.01154,2.57044 10.72136,2.99622 16.94502,0.89192 -5.3106,6.55408 -11.89083,4.67526 -17.836743,0 l 0.890923,-0.89192"
         style="fill:#800080;stroke:none;stroke-width:0.237153"
         id="path1-1-6" />
      <g
         id="g1"
         transform="matrix(0,-0.85003935,1.3099765,0,-157.38888,517.56359)"
         style="stroke-width:0.849398">
        <text
           xml:space="preserve"
           style="font-size:137.176px;font-family:Blockletter;-inkscape-font-specification:'Blockletter, Normal';fill:#000000;stroke-width:0.224739"
           x="166.37158"
           y="-368.75177"
           id="text1-8"
           transform="matrix(0,0.96061906,-1.0409954,0,0,0)"><tspan
             sodipodi:role="line"
             id="tspan1-2"
             style="fill:#000000;stroke-width:0.224739"
             x="166.37158"
             y="-368.75177">diskclub</tspan></text>
        <text
           xml:space="preserve"
           style="font-size:137.176px;font-family:Blockletter;-inkscape-font-specification:'Blockletter, Normal';fill:#ff00ff;stroke-width:0.224739"
           x="160.37418"
           y="-371.22113"
           id="text1-5-4"
           transform="matrix(0,0.96061906,-1.0409954,0,0,0)"><tspan
             sodipodi:role="line"
             id="tspan1-3-6"
             style="fill:#ff00ff;stroke-width:0.224739"
             x="160.37418"
             y="-371.22113">diskclub</tspan></text>
        <text
           xml:space="preserve"
           transform="matrix(0,0.17807167,-0.28363455,0,530.10479,103.04211)"
           id="text2"
           style="font-size:10.6667px;font-family:Karma;-inkscape-font-specification:'Karma, @wght=700';font-variation-settings:'wght' 700;white-space:pre;shape-inside:url(#rect2);display:inline;fill:#800080;stroke:#000000;stroke-width:30.3761;stroke-linejoin:round" />
        <text
           xml:space="preserve"
           transform="matrix(0,0.17807167,-0.28363455,0,530.10479,103.04211)"
           id="text3"
           style="font-size:10.6667px;font-family:Karma;-inkscape-font-specification:'Karma, @wght=700';font-variation-settings:'wght' 700;white-space:pre;shape-inside:url(#rect3);display:inline;fill:#800080;stroke:#000000;stroke-width:30.3761;stroke-linejoin:round" />
        <text
           xml:space="preserve"
           transform="matrix(0,0.17807167,-0.28363455,0,530.10479,103.04211)"
           id="text4"
           style="font-size:192px;font-family:Karma;-inkscape-font-specification:'Karma, @wght=700';font-variation-settings:'wght' 700;white-space:pre;shape-inside:url(#rect4);display:inline;fill:#800080;stroke:#000000;stroke-width:30.3761;stroke-linejoin:round" />
        <text
           xml:space="preserve"
           style="font-size:43.1497px;font-family:Karma;-inkscape-font-specification:'Karma, @wght=700';font-variation-settings:'wght' 700;fill:#800080;stroke:#000000;stroke-width:6.82667;stroke-linejoin:round"
           x="233.78226"
           y="-834.96857"
           id="text5"
           transform="matrix(0,0.79235144,-1.2620662,0,0,0)"><tspan
             sodipodi:role="line"
             id="tspan5"
             style="stroke-width:6.82666"
             x="233.78226"
             y="-834.96857" /></text>
      </g>
      <g
         id="g2"
         transform="matrix(1.149284,0,0,1.2119732,-7.0653381,-139.5604)"
         style="stroke-width:0.759456">
        <text
           xml:space="preserve"
           style="font-style:normal;font-variant:normal;font-weight:normal;font-stretch:normal;font-size:32.9689px;font-family:VT323;-inkscape-font-specification:VT323;fill:#000000;stroke:#000000;stroke-width:0.200941"
           x="201.05894"
           y="539.20569"
           id="text6-3"
           transform="scale(0.99806665,1.0019371)"><tspan
             sodipodi:role="line"
             id="tspan2-47"
             style="fill:#000000;stroke-width:0.200941"
             x="201.05894"
             y="539.20569">Date:  /  /     -   :  </tspan></text>
        <text
           xml:space="preserve"
           style="font-style:normal;font-variant:normal;font-weight:normal;font-stretch:normal;font-size:32.9689px;font-family:VT323;-inkscape-font-specification:VT323;fill:#000000;stroke:#000000;stroke-width:0.200941"
           x="200.0537"
           y="507.73883"
           id="text6-6-4"
           transform="scale(0.99806665,1.0019371)"><tspan
             sodipodi:role="line"
             id="tspan2-4-7"
             style="fill:#000000;stroke-width:0.200941"
             x="200.0537"
             y="507.73883">Vol(s): __ / __   </tspan></text>
        <text
           xml:space="preserve"
           style="font-style:normal;font-variant:normal;font-weight:normal;font-stretch:normal;font-size:59.3441px;font-family:'Source Code Pro';-inkscape-font-specification:'Source Code Pro';fill:#000000;stroke:#000000;stroke-width:0.200941"
           x="197.07484"
           y="303.21246"
           id="text9-1"
           transform="scale(0.99806665,1.0019371)"><tspan
             sodipodi:role="line"
             id="tspan9-4"
             style="fill:#000000;stroke-width:0.200941"
             x="197.07484"
             y="303.21246" /><tspan
             sodipodi:role="line"
             style="fill:#000000;stroke-width:0.200941"
             id="tspan10-0"
             x="197.07484"
             y="377.39258">-----------</tspan></text>
        <text
           xml:space="preserve"
           style="font-style:normal;font-variant:normal;font-weight:normal;font-stretch:normal;font-size:59.3441px;font-family:'Source Code Pro';-inkscape-font-specification:'Source Code Pro';fill:#000000;stroke:#000000;stroke-width:0.200941"
           x="197.02687"
           y="265.18991"
           id="text9-5-4"
           transform="scale(0.99806665,1.0019371)"><tspan
             sodipodi:role="line"
             id="tspan9-0-8"
             style="fill:#000000;stroke-width:0.200941"
             x="197.02687"
             y="265.18991" /><tspan
             sodipodi:role="line"
             style="fill:#000000;stroke-width:0.200941"
             id="tspan10-9-3"
             x="197.02687"
             y="339.37003">-----------</tspan></text>
        <text
           xml:space="preserve"
           style="font-style:normal;font-variant:normal;font-weight:normal;font-stretch:normal;font-size:59.3441px;font-family:'Source Code Pro';-inkscape-font-specification:'Source Code Pro';fill:#000000;stroke:#000000;stroke-width:0.200941"
           x="197.63463"
           y="342.98013"
           id="text9-7-3"
           transform="scale(0.99806665,1.0019371)"><tspan
             sodipodi:role="line"
             id="tspan9-3-4"
             style="fill:#000000;stroke-width:0.200941"
             x="197.63463"
             y="342.98013" /><tspan
             sodipodi:role="line"
             style="fill:#000000;stroke-width:0.200941"
             id="tspan10-6-6"
             x="197.63463"
             y="417.16025">-----------</tspan></text>
        <text
           xml:space="preserve"
           style="font-style:normal;font-variant:normal;font-weight:normal;font-stretch:normal;font-size:59.3441px;font-family:'Source Code Pro';-inkscape-font-specification:'Source Code Pro';fill:#000000;stroke:#000000;stroke-width:0.200941"
           x="196.45418"
           y="381.48663"
           id="text9-4-1"
           transform="scale(0.99806665,1.0019371)"><tspan
             sodipodi:role="line"
             id="tspan9-8-5"
             style="fill:#000000;stroke-width:0.200941"
             x="196.45418"
             y="381.48663" /><tspan
             sodipodi:role="line"
             style="fill:#000000;stroke-width:0.200941"
             id="tspan10-1-5"
             x="196.45418"
             y="455.66675">-----------</tspan></text>
        <text
           xml:space="preserve"
           style="font-style:normal;font-variant:normal;font-weight:normal;font-stretch:normal;font-size:59.3441px;font-family:'Source Code Pro';-inkscape-font-specification:'Source Code Pro';fill:#000000;stroke:#000000;stroke-width:0.200941"
           x="197.01396"
           y="421.25449"
           id="text9-7-2-4"
           transform="scale(0.99806665,1.0019371)"><tspan
             sodipodi:role="line"
             id="tspan9-3-9-6"
             style="fill:#000000;stroke-width:0.200941"
             x="197.01396"
             y="421.25449" /><tspan
             sodipodi:role="line"
             style="fill:#000000;stroke-width:0.200941"
             id="tspan10-6-3-6"
             x="197.01396"
             y="495.4346">-----------</tspan></text>
      </g>
      <rect
         style="font-variation-settings:'wght' 700;fill:none;stroke:#000000;stroke-width:7.20377;stroke-linecap:butt;stroke-linejoin:round;stroke-dasharray:none"
         id="rect1"
         width="509.53845"
         height="714.43347"
         x="-580.09399"
         y="-18.804256"
         transform="rotate(-90)" />
    </g>
  </g>
</svg>
