<?xml version="1.0" encoding="UTF-8" standalone="no"?>
<!-- Created with Inkscape (http://www.inkscape.org/) -->

<svg
   width="235.0558mm"
   height="218.11554mm"
   viewBox="0 0 235.0558 218.11554"
   version="1.1"
   id="svg1"
   inkscape:version="1.3 (0e150ed6c4, 2023-07-21)"
   sodipodi:docname="bitmap-traced-smooth-pirate.svg"
   inkscape:export-filename="../../dev/gen/retrolabels/diskette/diskclub/art/bitmap-traced-pirate.svg"
   inkscape:export-xdpi="96"
   inkscape:export-ydpi="96"
   xmlns:inkscape="http://www.inkscape.org/namespaces/inkscape"
   xmlns:sodipodi="http://sodipodi.sourceforge.net/DTD/sodipodi-0.dtd"
   xmlns="http://www.w3.org/2000/svg"
   xmlns:svg="http://www.w3.org/2000/svg">
  <sodipodi:namedview
     id="namedview1"
     pagecolor="#ffffff"
     bordercolor="#000000"
     borderopacity="0.25"
     inkscape:showpageshadow="2"
     inkscape:pageopacity="0.0"
     inkscape:pagecheckerboard="0"
     inkscape:deskcolor="#d1d1d1"
     inkscape:document-units="mm"
     showgrid="false"
     inkscape:lockguides="false"
     inkscape:zoom="0.13181247"
     inkscape:cx="2188.7156"
     inkscape:cy="921.76409"
     inkscape:window-width="1920"
     inkscape:window-height="1043"
     inkscape:window-x="0"
     inkscape:window-y="0"
     inkscape:window-maximized="1"
     inkscape:current-layer="g13">
    <inkscape:grid
       id="grid1"
       units="mm"
       originx="38.002511"
       originy="-473.9308"
       spacingx="0.99999998"
       spacingy="1"
       empcolor="#0099e5"
       empopacity="0.30196078"
       color="#0099e5"
       opacity="0.14901961"
       empspacing="5"
       dotted="false"
       gridanglex="30"
       gridanglez="30"
       visible="false" />
  </sodipodi:namedview>
  <defs
     id="defs1" />
  <g
     inkscape:label="Layer 1"
     inkscape:groupmode="layer"
     id="layer1"
     transform="translate(10.054824,-125.3942)">
    <g
       id="g13"
       transform="matrix(1.1342379,0,0,1.0973984,-19.557985,13.393252)"
       style="stroke-width:0.896321">
      <path
         d="m 76.404772,207.17368 7.1348,3.56734 -9.81029,1.78367 6.24286,5.35109 c -12.67932,6.73938 -22.39804,-8.10769 -24.97155,-18.72868 -9.7059,-0.55301 -12.14904,-6.83286 -11.39949,-16.05326 1.11179,-13.67672 6.87793,-28.28529 -2.75156,-40.8278 -8.98976,-11.70924 -26.55011,-6.7836 -31.2780404,6.04625 -2.4404,6.62242 -0.96867,13.6911 2.8846004,19.49807 1.87652,2.82764 5.74286,5.58643 5.87386,9.2283 0.26672,7.38331 -7.45526,12.8587 -4.40928,20.99228 3.04644,8.13544 11.39342,3.18415 13.43272,-2.45134 l 4.64343,15.16142 -1.66984,10.7021 5.75293,11.59392 0.19197,16.05335 h -3.56736 l 6.24284,4.45918 v 8.02666 h 24.97154 v 0.89184 l -19.62042,2.6755 v 2.6756 l 8.02646,0.89182 -16.94503,7.13477 c 7.66832,8.919 26.07193,-1.27754 34.78185,-4.45917 v 0.89173 l -22.29607,11.59402 c 9.64255,0.6001 17.79504,-1.95327 26.75531,-5.35109 l -14.26954,13.37768 v 1.78368 c 10.04499,0.84073 19.46276,-7.3754 26.75531,-13.37769 l -4.45924,19.62061 c 7.08115,-1.72576 10.6633,-9.97004 15.16141,-15.16134 l -3.56736,16.05317 14.269368,-12.48585 c 1.24884,5.34554 2.69892,10.18723 8.02661,12.48585 l 1.7836,-9.81035 7.13481,6.24294 v -10.70202 l 7.1348,9.81018 V 285.656 h 1.7836 l 7.13475,9.81027 2.67547,-16.05318 c 7.21261,5.0739 28.76687,22.24921 30.52287,1.78375 0.2737,-3.1998 -0.792,-6.61945 -1.0921,-9.81033 4.2527,0.73037 13.3826,1.62287 13.8003,7.27611 0.2927,3.95765 -2.5556,7.3237 -2.2064,11.45265 5.5213,-3.90589 5.9905,-8.83044 6.2429,-15.16144 12.5145,-0.28913 6.4769,-10.45902 -1.7836,-13.3776 -0.2959,-12.4123 2.1441,-25.01621 8.7431,-35.67285 3.1147,-5.02978 12.8951,-12.22487 13.4894,-18.03201 0.5468,-5.34184 -8.5219,-15.6732 -10.6386,-21.21011 21.1832,-10.64688 17.5697,-41.1918 -2.017,-52.1004 -6.305,-3.51144 -13.2662,-0.95645 -19.3174,-3.72442 -8.5718,-3.92076 -13.101,-11.06872 -23.25771,-12.39422 -6.32537,-0.82535 -12.81566,3.22888 -18.72862,1.73187 -6.41208,-1.6233 -11.78231,-7.23458 -17.83674,-9.9117 -15.46958,-6.83999 -36.100438,-11.086515 -52.618798,-5.88261 -36.63058,11.54014 -20.30419,54.86364 -1.45898,74.19941 5.44224,5.58382 15.82372,9.0187 20.05865,15.05739 4.39748,6.27073 -4.35397,13.02703 -9.68126,13.5371 m 22.29606,-57.07813 -7.13464,-7.13467 h -0.89244 l 2.67549,8.91842 c -4.98488,-1.39965 -9.89652,-5.69232 -6.24293,2.6755 -5.86244,-4.09877 -8.6384,-5.03793 -4.45924,2.67559 -5.08661,-2.80611 -9.00779,-7.82966 -14.31036,-10.08206 -3.18909,-1.35462 -7.80372,-0.16725 -10.18858,-3.08945 -2.53143,-3.10112 -0.90776,-7.26604 -1.40422,-10.83859 -0.9291,-6.69913 -4.80534,-10.92867 -0.90777,-17.78094 8.29781,-14.58672 24.49973,-9.07686 34.2378,-0.50515 2.02867,1.78569 5.45929,2.96532 6.72039,5.45768 2.44048,4.82317 -2.78721,10.47977 -2.68515,15.43155 0.10705,5.30234 4.63037,8.85362 4.59,14.27204 m -8.41551,-30.64679 c -6.02963,-1.97664 -12.37326,8.58862 -5.46937,11.13116 6.58541,2.42548 11.80774,-9.05322 5.46937,-11.13116 m 92.248558,44.91628 c -16.03231,-6.47537 -31.55641,-25.52681 -40.13274,-40.13291 25.54307,-11.64221 45.12624,16.64932 40.13274,40.13291 M 59.458032,141.17713 c 1.7264,0.55891 3.45823,1.22676 5.31115,1.03564 16.69766,-1.72138 0.369,-22.13044 -4.24683,-7.22561 -0.61052,1.97126 -0.74191,4.1576 -1.06457,6.18989 m 17.83675,-8.0266 c -0.67033,3.15407 -1.78542,7.85186 0.0912,10.81363 3.3296,5.27393 10.90579,-2.12347 12.4012,-5.46263 l -12.48578,-5.351 m -61.53707,27.64711 c -9.5988704,-9.33715 3.87626,-23.46261 15.07873,-19.49015 19.41823,6.88563 8.71456,33.75858 8.87435,47.6286 0.0314,3.21223 4.41495,16.70582 0.49174,17.98132 -5.07065,1.64861 -6.60949,-10.35183 -6.9666,-13.19116 -1.68786,-13.41635 7.86028,-32.39053 0.44138,-44.29521 -7.81599,-12.54389 -19.34796,1.31284 -17.92053,11.3666 m 12.48576,32.99827 c -5.59077,-6.35108 -1.9463,-12.42709 -3.23905,-19.47862 -0.65301,-3.5608 -3.56051,-6.46954 -4.62666,-9.964 -1.50626,-4.9384 -0.48464,-9.28705 -0.16129,-14.25774 21.80529,-1.5723 5.81005,31.17494 8.02661,43.70036 m 149.829348,-8.02657 8.0266,-8.91853 c -11.6553,20.13473 -31.11038,24.62341 -51.72693,16.05328 7.6886,-8.48734 14.95097,-0.77156 22.29598,3.56733 l -7.13447,-12.48583 10.70192,3.56749 -1.7836,5.35101 c 11.4865,1.59985 10.67684,-6.47909 8.02645,-14.26952 l -3.5672,0.89192 -7.13482,-8.91842 c -21.07523,-1.58128 -43.807,-23.11357 -65.104408,-8.91851 -5.64647,1.2993 -4.52369,21.76416 -4.45909,27.64719 h -1.78374 c -0.65459,-5.33813 1.31279,-10.16973 0.85593,-15.3144 -0.33674,-3.79595 -2.94692,-8.18123 -0.89559,-11.87968 4.70865,-8.48801 21.551768,-8.71547 29.470128,-6.97187 10.34868,2.27878 18.86888,7.46289 28.85172,10.52366 5.49983,1.68633 10.48164,1.14724 15.73466,4.16726 7.43173,4.2725 12.48826,11.32288 19.62616,15.9077 m -42.80844,-16.9451 v 1.78375 l -16.05315,10.70209 v -5.35109 l -2.67547,0.89192 -4.45915,-9.81034 -3.56739,0.89192 0.89102,-4.45926 -3.56729,-2.67551 c 10.47565,0.12523 20.17629,3.23452 29.43073,8.0266 m -120.398648,-7.13477 -0.89251,0.89193 0.89251,-0.89193 m 189.070488,0 v 3.56741 c -6.5125,0.0992 -12.027,5.26714 -17.8369,0 l 17.8369,-3.56741 m 0,6.24294 -0.8925,4.45925 h -0.8925 l 1.7838,-4.45925 m -103.45374,2.67558 v 0.89184 l -10.702008,8.02658 3.56745,-3.56743 -0.89252,-3.56732 8.026518,-1.78367 m 1.78361,1.78367 c 4.51053,3.83284 7.6827,8.77714 12.00946,12.73092 4.83703,4.41993 10.62814,6.162 12.07035,13.13261 l -11.59387,4.45923 v 0.89186 l 9.81006,-1.78368 c -0.52399,12.13244 -16.50822,10.89431 -25.863278,14.2695 L 110.7155,195.324 102.26838,172.39183 m 86.21149,1.48632 -0.2966,0.59421 0.2966,-0.59421 m 14.5667,-0.59424 v 2.67559 h -0.8925 l 0.8925,-2.67559 m -16.0526,1.78366 -0.8925,0.89193 0.8925,-0.89193 m 8.9183,0 9.8103,32.9983 c -11.626,9.60567 -15.7981,23.23718 -19.257,37.45744 -0.8681,3.56827 -0.513,15.16076 -5.2105,15.92124 -9.7864,1.58438 -8.5634,-17.81628 -7.8815,-23.05601 2.7715,-21.29238 4.707,-48.60406 22.5387,-63.32097 m -46.37565,3.56744 c -6.08323,6.21988 -15.81522,8.86722 -24.07974,10.70217 1.51539,-11.27462 15.24054,-11.20403 24.07974,-10.70217 m -45.48394,9.81025 -9.810278,-8.02659 c 5.48566,-0.4194 7.410008,3.67332 9.810278,8.02659 m -11.593878,-2.6755 3.56736,6.24292 -3.56736,-6.24292 m -72.23931,3.56742 c 3.11372,9.54257 -5.41328,7.23351 0,0 m 82.941328,2.6755 2.67562,4.45916 -5.35111,1.78376 2.67549,-6.24292 m -7.134658,0.89184 1.7836,6.2429 -8.02644,2.67559 v -0.89191 l 6.24284,-8.02658 m 77.590108,4.45924 c -2.1659,9.66351 -9.83042,20.13767 -14.96558,28.59216 -2.97918,4.90496 -3.84903,8.6029 -10.00595,9.75721 -0.61054,-7.89362 -7.56714,-13.02804 -12.48578,-18.72884 11.72339,0.84955 12.0001,-7.98281 19.32915,-14.17993 4.56877,-3.86301 12.38964,-4.78099 18.12816,-5.4406 m -124.857798,4.45942 c 9.20755,4.23133 -3.42865,16.01654 -8.90534,17.716 -3.53322,1.0964 -6.29327,-1.64055 -3.70599,-4.88203 4.42777,-5.547 9.34381,-5.14306 12.61133,-12.83397 m 7.13473,8.0266 c 7.26832,12.01703 4.12818,14.66514 -1.7836,25.86352 l 10.70202,-6.243 5.35112,3.56733 c -2.51285,6.58844 -4.71038,11.10788 -10.70217,15.16143 l 0.8925,-2.67559 h -2.67547 l 0.89093,3.56742 h -0.89093 -0.89251 c -0.97017,-7.38764 -17.50615,5.66924 -16.92024,-6.24292 0.0787,-1.56456 0.46341,-2.95588 0.86662,-4.45924 h 10.70218 c -2.48942,-1.27871 -5.32438,-2.03027 -7.71655,-3.45984 -13.36837,-7.98886 5.77709,-17.70658 10.39204,-25.07911 h 1.78358 m 69.563678,9.81018 v 0.89192 l -20.5123,-2.67551 c 5.30257,-2.04782 15.32756,-0.37822 20.5123,1.78367 m -24.97154,0.89192 c -0.0314,8.95533 -1.337278,13.33102 -10.702018,15.16142 l -0.8925,-3.5675 5.35105,-4.45909 -3.56745,0.89184 c 1.27936,-6.71141 2.12845,-10.55357 9.810288,-8.02667 m 28.5389,-0.89183 8.02669,9.81025 h -0.89252 l -7.13478,-9.81025 m -16.94487,2.67558 v 6.24284 l -4.45926,2.67559 v -8.91869 h 4.45926 m -39.241078,3.56735 -8.02661,1.78375 0.89244,-4.45917 7.1348,2.67542 m 56.185928,-0.89184 -7.13456,11.59394 -0.89252,-13.37761 8.02647,1.78367 m 8.91854,5.35108 c 5.0144,10.12275 4.04699,37.618 -9.81043,41.02479 3.13763,-7.51423 7.98387,-13.769 7.1348,-22.29611 h -1.78361 c -1.86331,8.39759 -4.70848,22.93504 -16.01845,22.04054 -5.73906,-0.45388 -8.15492,-5.45046 -14.3043,-4.2036 l -1.78361,-7.13476 -8.918308,-0.8919 -1.78375,-4.45926 -8.02653,0.8919 5.35095,-7.13466 16.945088,9.81017 c -0.79045,-6.72426 -15.218678,-11.37842 -14.013348,-15.99628 1.29911,-4.97725 8.88443,-3.07581 11.632818,-0.8866 5.55419,4.42394 9.25389,25.90653 18.40409,22.99385 12.3731,-3.93875 12.47161,-24.10683 16.97459,-33.75815 m -65.996378,1.18918 c 0.69,0 0.13691,0.44379 -0.2966,0.29755 l 0.2966,-0.29755 m -14.26936,5.94557 v 1.78375 l 7.13464,1.78358 v -5.35092 l -7.13464,1.78359 m 30.3225,-0.89182 -5.35095,11.59399 5.35095,-11.59399 m 78.481988,3.56742 1.78376,14.26942 c -6.42962,2.26483 -16.5894,7.55348 -8.02666,14.26961 l -4.4591,13.37767 h -1.78377 l -2.67548,-24.9717 6.24285,-5.35108 2.6755,0.89191 0.89249,-4.45926 h 5.35096 v -8.02657 m -47.26744,8.9184 -1.78368,8.91843 c -5.83593,-2.98328 -3.45021,-7.3457 1.78368,-8.91843 m -62.428858,4.45918 v 0.89175 l -11.5939,3.56741 0.89094,-4.45925 h 10.70218 m 140.019088,17.83694 c -11.1561,1.96857 -26.4914,-3.3995 -37.45737,-6.24292 7.72513,-10.20402 13.28907,-0.10255 21.53747,2.04505 6.4877,1.68838 10.7926,-1.85123 15.9199,4.19787 m -90.07603,-4.45925 1.78378,2.67566 c -2.00737,-0.42192 -2.78059,-0.76735 -1.78378,-2.67566 m 59.75333,2.67566 c 1.14223,2.02566 2.30247,4.01717 2.931,6.27721 4.2735,15.36475 -17.16349,12.09039 -8.09883,-1.63884 1.35396,-2.05171 3.16323,-3.30224 5.16783,-4.63837 m -57.07782,1.78359 c 6.01154,2.57044 10.72136,2.99622 16.94502,0.89192 -5.3106,6.55408 -11.89083,4.67526 -17.83675,0 l 0.89093,-0.89192"
         style="fill:#800080;stroke:none;stroke-width:0.237153"
         id="path1-1-6-9" />
    </g>
  </g>
</svg>
