<?xml version="1.0" encoding="UTF-8" standalone="no"?>
<!-- Created with Inkscape (http://www.inkscape.org/) -->

<svg
   width="235.0558mm"
   height="218.11555mm"
   viewBox="0 0 235.0558 218.11555"
   version="1.1"
   id="svg1"
   inkscape:version="1.3 (0e150ed6c4, 2023-07-21)"
   sodipodi:docname="bitmap-traced-smooth-pirate-1.svg"
   inkscape:export-filename="../../dev/gen/retrolabels/diskette/diskclub/art/bitmap-traced-smooth-pirate.svg"
   inkscape:export-xdpi="96"
   inkscape:export-ydpi="96"
   xmlns:inkscape="http://www.inkscape.org/namespaces/inkscape"
   xmlns:sodipodi="http://sodipodi.sourceforge.net/DTD/sodipodi-0.dtd"
   xmlns="http://www.w3.org/2000/svg"
   xmlns:svg="http://www.w3.org/2000/svg">
  <sodipodi:namedview
     id="namedview1"
     pagecolor="#ffffff"
     bordercolor="#000000"
     borderopacity="0.25"
     inkscape:showpageshadow="2"
     inkscape:pageopacity="0.0"
     inkscape:pagecheckerboard="0"
     inkscape:deskcolor="#d1d1d1"
     inkscape:document-units="mm"
     showgrid="false"
     inkscape:lockguides="false"
     inkscape:zoom="0.093205491"
     inkscape:cx="407.7013"
     inkscape:cy="1013.8888"
     inkscape:window-width="1920"
     inkscape:window-height="1043"
     inkscape:window-x="0"
     inkscape:window-y="0"
     inkscape:window-maximized="1"
     inkscape:current-layer="g13">
    <inkscape:grid
       id="grid1"
       units="mm"
       originx="-129.35626"
       originy="-534.17214"
       spacingx="0.99999998"
       spacingy="1"
       empcolor="#0099e5"
       empopacity="0.30196078"
       color="#0099e5"
       opacity="0.14901961"
       empspacing="5"
       dotted="false"
       gridanglex="30"
       gridanglez="30"
       visible="false" />
  </sodipodi:namedview>
  <defs
     id="defs1" />
  <g
     inkscape:label="Layer 1"
     inkscape:groupmode="layer"
     id="layer1"
     transform="translate(-34.225518,-141.33306)">
    <g
       id="g13"
       transform="matrix(1.1342379,0,0,1.0973984,-19.557985,13.393252)"
       style="stroke-width:0.896321">
      <path
         d="m 115.44451,221.69791 7.1348,3.56734 -9.81029,1.78367 6.24286,5.35109 c -12.67932,6.73938 -22.398044,-8.10769 -24.971554,-18.72868 -9.7059,-0.55301 -12.14904,-6.83286 -11.39949,-16.05326 1.11179,-13.67673 6.87793,-28.2853 -2.75156,-40.82781 -8.98976,-11.70924 -26.55011,-6.7836 -31.27804,6.04625 -2.44041,6.62242 -0.96867,13.6911 2.8846,19.49807 1.87651,2.82764 5.74286,5.58643 5.87386,9.2283 0.26671,7.38332 -7.45527,12.85871 -4.40928,20.99229 3.04644,8.13544 11.39342,3.18415 13.43271,-2.45134 l 4.64344,15.16142 -1.66984,10.7021 5.75293,11.59392 0.19196,16.05335 h -3.56736 l 6.24285,4.45918 v 8.02666 h 24.971544 v 0.89184 l -19.620424,2.6755 v 2.6756 l 8.02646,0.89182 -16.94503,7.13477 c 7.66832,8.919 26.071934,-1.27754 34.781854,-4.45917 v 0.89173 l -22.296084,11.59402 c 9.64256,0.6001 17.795054,-1.95327 26.755324,-5.35109 l -14.269544,13.37768 v 1.78368 c 10.044994,0.84073 19.462764,-7.3754 26.755314,-13.37769 l -4.45925,19.62061 c 7.08116,-1.72576 10.66331,-9.97004 15.16142,-15.16134 l -3.56736,16.05317 14.26937,-12.48585 c 1.24884,5.34554 2.69892,10.18723 8.0266,12.48585 l 1.7836,-9.81035 7.13481,6.24294 v -10.70202 l 7.13481,9.81018 v -10.70211 h 1.7836 l 7.13475,9.81027 2.67547,-16.05318 c 7.21261,5.0739 28.76687,22.24921 30.52287,1.78375 0.2737,-3.1998 -0.792,-6.61945 -1.0921,-9.81033 4.2527,0.73037 13.3826,1.62287 13.8003,7.27611 0.2927,3.95765 -2.5556,7.3237 -2.2064,11.45265 5.5213,-3.90589 5.9905,-8.83044 6.2429,-15.16144 12.5145,-0.28913 6.4769,-10.45902 -1.7836,-13.3776 -0.2959,-12.4123 2.1441,-25.01621 8.7431,-35.67285 3.1147,-5.02978 12.8951,-12.22487 13.4894,-18.03201 0.5468,-5.34184 -8.5219,-15.6732 -10.6386,-21.21011 21.1832,-10.64689 17.5697,-41.19181 -2.017,-52.10041 -6.305,-3.51144 -13.2662,-0.95645 -19.3174,-3.72442 -8.5718,-3.92076 -13.101,-11.06872 -23.25771,-12.39422 -6.32537,-0.82535 -12.81566,3.22888 -18.72862,1.73187 -6.41208,-1.6233 -11.78232,-7.23458 -17.83675,-9.9117 -15.46957,-6.83999 -36.10043,-11.08652 -52.61879,-5.88261 -36.630584,11.54014 -20.304204,54.86364 -1.45898,74.19942 5.44223,5.58382 15.82372,9.0187 20.05865,15.05739 4.39748,6.27073 -4.35397,13.02703 -9.68126,13.5371 m 22.29606,-57.07814 -7.13465,-7.13467 h -0.89243 l 2.67548,8.91842 c -4.98487,-1.39965 -9.89651,-5.69232 -6.24292,2.6755 -5.86244,-4.09877 -8.6384,-5.03793 -4.45924,2.67559 -5.08661,-2.80611 -9.00779,-7.82966 -14.31036,-10.08206 -3.18909,-1.35462 -7.803734,-0.16725 -10.188584,-3.08945 -2.53143,-3.10112 -0.90776,-7.26604 -1.40422,-10.83859 -0.9291,-6.69913 -4.80534,-10.92867 -0.90777,-17.78094 8.297814,-14.58672 24.499734,-9.07686 34.237804,-0.50515 2.02867,1.78569 5.45929,2.96532 6.72039,5.45768 2.44048,4.82317 -2.78721,10.47977 -2.68515,15.43155 0.10705,5.30234 4.63037,8.85362 4.59,14.27204 m -8.41551,-30.64679 c -6.02963,-1.97664 -12.37326,8.58862 -5.46937,11.13116 6.5854,2.42548 11.80773,-9.05322 5.46937,-11.13116 m 92.24856,44.91628 c -16.0323,-6.47537 -31.55641,-25.52681 -40.13274,-40.13291 25.54304,-11.64221 45.12624,16.64932 40.13274,40.13291 M 98.497766,155.70135 c 1.726404,0.55891 3.458234,1.22676 5.311154,1.03564 16.69766,-1.72138 0.36899,-22.13044 -4.246834,-7.22561 -0.61052,1.97126 -0.74192,4.1576 -1.06457,6.18989 m 17.836754,-8.0266 c -0.67033,3.15407 -1.78542,7.85186 0.0912,10.81363 3.32959,5.27393 10.90579,-2.12347 12.40119,-5.46263 l -12.48577,-5.351 m -61.537074,27.64711 c -9.59887,-9.33715 3.87626,-23.46261 15.07873,-19.49015 19.41823,6.88563 8.71456,33.75858 8.87435,47.62861 0.0314,3.21223 4.41495,16.70582 0.49174,17.98132 -5.07065,1.64861 -6.60949,-10.35183 -6.9666,-13.19116 -1.68787,-13.41635 7.86028,-32.39054 0.44138,-44.29522 -7.81599,-12.54389 -19.34796,1.31284 -17.92053,11.3666 m 12.48575,32.99828 c -5.59076,-6.35108 -1.94629,-12.42709 -3.23904,-19.47863 -0.65301,-3.5608 -3.56051,-6.46954 -4.62666,-9.964 -1.50626,-4.9384 -0.48464,-9.28705 -0.1613,-14.25774 21.80529,-1.5723 5.81006,31.17495 8.02662,43.70037 m 149.829354,-8.02657 8.0265,-8.91854 c -7.301,12.61274 -20.8335,21.71118 -33.03628,22.57154 -7.27749,0.5131 -18.38637,-2.92724 -23.11406,-9.27622 1.3038,-1.48187 4.27094,-1.50901 7.19513,-2.10821 2.22616,-0.45616 7.65574,-1.69146 9.3363,-0.58369 3.22065,2.12295 6.05678,7.30178 8.40885,11.52821 l -5.07272,-9.22588 c -2.1652,-1.05764 -1.76639,-2.90415 -4.05738,-2.97373 -1.65362,-0.0502 -3.26479,-0.34271 -5.42863,0.20896 l -14.54819,3.48985 c -0.50406,0.0982 -1.78268,0.1306 -2.34852,0.24811 1.67094,-1.23541 7.33766,-5.39356 6.07363,-3.18563 -0.68353,1.19396 4.17799,-3.60494 4.03544,-1.75663 -0.22881,2.96666 5.2212,-2.0853 4.21781,-0.44138 -0.71806,1.17645 4.63656,-2.74811 4.77124,-1.52283 0.27758,2.52542 4.48165,-1.17507 4.8486,0.71313 0.12634,0.65015 1.31258,0.90122 1.81125,0.038 0.35711,-0.61818 1.98739,-0.57808 2.06784,0.12376 0.13375,1.16682 3.20904,-0.0246 3.54085,-1.15323 0.33557,-1.1414 1.86173,1.5659 2.75424,1.18815 1.88779,-0.79898 2.62125,2.12173 4.85155,2.73098 l 7.12865,-2.1192 8.0425,5.43921 -11.7537,-12.30714 -9.93332,-8.03176 c -21.07523,-1.58128 -43.92065,-22.95063 -65.21806,-8.75557 -5.64647,1.2993 -4.52369,21.76417 -4.45909,27.6472 h -1.78374 c -0.65459,-5.33813 1.31279,-10.16973 0.85593,-15.31441 -0.33674,-3.79595 -2.94693,-8.18123 -0.89559,-11.87968 4.70865,-8.48801 21.55177,-8.71547 29.47012,-6.97187 10.34868,2.27878 18.86889,7.46289 28.85173,10.52366 5.49983,1.68633 10.48164,1.14724 15.73466,4.16726 7.43176,4.2725 12.48816,11.32289 19.62616,15.90771 m -42.80844,-16.94511 8.04738,2.22309 10.81269,3.27099 15.36047,11.01069 -2.1364,0.28217 -2.3704,-1.79112 -1.76925,0.15507 -1.4857,-2.38599 -2.32844,0.85986 -3.48731,-3.40343 -4.44639,-1.47883 -7.03767,0.002 -5.78375,-2.97122 -3.37151,3.40035 -5.25881,-2.57802 -2.64401,5.4397 -5.1171,-4.35441 -3.03696,4.80496 v -5.3511 l -2.67547,0.89192 -4.45914,-9.81034 -3.56739,0.89192 0.89102,-4.45926 -3.56729,-2.67551 c 10.47564,0.12523 20.17628,3.23452 29.43073,8.0266 m -120.398664,-7.13477 -0.8925,0.89193 0.8925,-0.89193 m 189.070404,0 v 3.56741 c -6.5124,0.0992 -12.027,5.26714 -17.8369,0 l 17.8369,-3.56741 m 0,6.24294 -0.8925,4.45925 h -0.8925 l 1.7839,-4.45925 m -103.45374,2.67558 v 0.89184 l -10.70201,8.02659 3.56745,-3.56744 -0.89252,-3.56732 8.02651,-1.78367 m 1.78361,1.78367 c 4.51054,3.83284 10.2029,7.63574 13.44476,11.07463 4.50562,4.77948 9.14013,5.99409 9.69662,10.50504 -7.28955,18.89255 -10.8514,10.77553 -27.54649,21.66769 -3.14491,-5.06615 -0.0217,-4.3444 2.83322,-9.05421 4.01776,-5.40018 7.28495,-9.49241 10.24239,-12.31789 -4.88339,-7.32248 -5.8647,-14.22957 -8.6705,-21.87517 m 86.2115,1.48632 -0.2967,0.59421 0.2967,-0.59421 m 14.5667,-0.59424 v 2.67559 h -0.8926 l 0.8926,-2.67559 m -16.0526,1.78366 -0.8926,0.89193 0.8926,-0.89193 m 8.9183,0 9.8103,32.99831 c -11.626,9.60567 -15.7981,23.23718 -19.257,37.45744 -0.8681,3.56827 -0.513,15.16076 -5.2106,15.92124 -9.7863,1.58438 -8.5634,-17.81628 -7.8815,-23.05601 2.7716,-21.29238 4.7071,-48.60406 22.5388,-63.32098 m -91.85959,13.3777 -9.81028,-8.02659 c 5.48566,-0.4194 7.41001,3.67332 9.81028,8.02659 m -11.59388,-2.6755 v 0 m -72.239324,3.56742 c 3.11372,9.54257 -5.41328,7.23351 0,0 m 84.256294,3.84259 1.36067,3.29207 -5.35111,1.78376 c 1.58202,-2.89627 1.60282,-7.62282 1.78717,-12.15763 m -4.46274,13.04945 -8.02644,2.67559 4.86151,-16.13575 m 78.97144,11.6765 c -2.166,9.66351 -9.8304,20.13767 -14.96558,28.59216 -2.97918,4.90496 -3.84903,8.6029 -10.00595,9.75721 -2.76493,-0.59103 0.28972,-4.54827 -0.73347,-5.46153 -0.74694,-0.66669 -2.93509,1.20426 -3.13807,0.56249 -0.5158,-1.63076 1.69205,-3.24382 0.2561,-4.64335 -0.73509,-0.71646 -3.75487,-1.12093 -4.43406,-1.86512 -0.85337,-0.93505 0.58967,-3.9467 -0.23164,-4.60795 -0.36058,-0.29031 -0.87893,1.14651 -1.71359,1.3271 -1.11915,0.24215 -2.6032,-0.73853 -3.09212,-1.27905 -0.0378,-0.0418 0.41967,-3.19378 0.22265,-2.78076 -0.36131,0.75744 -3.15443,1.42169 -3.88352,0.54339 -0.35599,-0.42885 -0.0977,-3.93415 0.0141,-3.03313 0.0587,0.47245 -2.47311,0.71094 -2.90095,0.75466 -0.66818,0.0683 0.12233,-3.23245 -0.17737,-1.95772 -0.0965,0.41028 -2.29403,0.41006 -2.62317,0.21888 -0.29508,-0.17139 1.07451,-1.29226 0.78458,-1.46077 -0.75918,-0.44124 -2.66655,-0.28466 -2.73965,-0.92956 -0.0778,-0.68644 -1.97416,0.64166 -2.38572,0.13378 -1.04528,-1.29003 -1.03857,-2.8231 -1.10111,-2.89558 0.6887,0.0499 4.10802,4.16598 9.44938,5.96306 3.02429,1.01751 9.03925,2.45637 9.35424,2.47365 3.11885,0.17107 4.1884,-0.89382 5.79591,-2.16859 3.67187,-2.91181 5.48644,-7.88411 10.12081,-11.80273 4.5687,-3.86309 12.3897,-4.78099 18.1282,-5.4406 m -124.857844,4.45942 c 9.20755,4.23133 -3.42865,16.01654 -8.90534,17.716 -3.53322,1.0964 -6.29328,-1.64055 -3.70599,-4.88203 4.42776,-5.547 9.3438,-5.14306 12.61133,-12.83397 m 7.13473,8.0266 c 7.268324,12.01703 4.12818,14.66514 -1.7836,25.86352 l 10.702024,-6.243 5.35112,3.56733 c -2.51286,6.58844 -4.71038,11.10788 -10.702174,15.16143 l 0.8925,-2.67559 h -2.67547 l 0.89093,3.56742 h -0.89093 -0.89252 c -0.97016,-7.38764 -17.50614,5.66924 -16.92023,-6.24292 0.0787,-1.56456 0.46341,-2.95588 0.86662,-4.45924 h 10.70218 c -2.48942,-1.27871 -5.32438,-2.03027 -7.71655,-3.45984 -13.36837,-7.98886 5.77709,-17.70658 10.39203,-25.07911 h 1.78359 m 69.563674,9.81018 v 0.89192 L 143.9838,232.4006 c 5.30257,-2.04782 15.32755,-0.37822 20.51229,1.78367 m -24.97154,0.89192 c -0.0314,8.95533 -1.33727,13.33102 -10.70201,15.16142 l -0.89251,-3.5675 5.35105,-4.45909 -3.56745,0.89184 c 1.27937,-6.71141 2.12845,-10.55357 9.8103,-8.02667 m 28.53889,-0.89183 8.0267,9.81025 H 175.197 l -7.13479,-9.81025 m -16.94486,2.67558 v 6.24284 l -4.45926,2.67559 v -8.91869 h 4.45926 m -39.24108,3.56735 -8.02662,1.78375 0.89245,-4.45917 7.1348,2.67542 m 56.18592,-0.89184 -7.13456,11.59394 -0.89252,-13.37761 8.02647,1.78367 m 8.91855,5.35108 c 5.0144,10.12275 4.04699,37.618 -9.81044,41.02479 3.13764,-7.51423 7.98388,-13.769 7.13481,-22.29611 h -1.78361 c -1.86331,8.39759 -4.70849,22.93504 -16.01846,22.04054 -5.73905,-0.45388 -8.15491,-5.45046 -14.30429,-4.2036 l -1.78361,-7.13476 -8.91831,-0.8919 -1.78375,-4.45926 -8.02654,0.8919 5.35096,-7.13466 16.94509,9.81017 c -0.79046,-6.72426 -15.21868,-11.37842 -14.01335,-15.99628 1.29911,-4.97725 8.88442,-3.07581 11.63282,-0.8866 5.55419,4.42394 9.25389,25.90653 18.40408,22.99385 12.37311,-3.93875 12.47162,-24.10683 16.9746,-33.75815 m -65.99638,1.18918 c 0.69,0 0.1369,0.44379 -0.29661,0.29755 l 0.29661,-0.29755 m -14.269364,5.94557 v 1.78375 l 7.134634,1.78358 v -5.35092 l -7.134634,1.78359 m 30.322504,-0.89182 -5.35096,11.59399 5.35096,-11.59399 m 78.48199,3.56742 1.7838,14.26942 c -6.42966,2.26483 -16.58944,7.55348 -8.0267,14.26961 l -4.4591,13.37767 h -1.78377 l -2.67548,-24.9717 6.24285,-5.35108 2.6755,0.89191 0.89249,-4.45926 h 5.35101 v -8.02657 m -47.2675,8.9184 -1.78368,8.91843 c -5.83592,-2.98328 -3.45021,-7.3457 1.78368,-8.91843 m -62.428854,4.45918 v 0.89175 l -11.5939,3.56741 0.89094,-4.45925 h 10.70218 m 140.019134,17.83694 c -11.1561,1.96857 -26.4914,-3.3995 -37.45741,-6.24292 7.72521,-10.20402 13.28901,-0.10255 21.53751,2.04505 6.4876,1.68838 10.7926,-1.85123 15.9199,4.19787 m -90.07607,-4.45925 1.78378,2.67566 c -2.00737,-0.42192 -2.7806,-0.76735 -1.78378,-2.67566 m 59.75337,2.67566 c 1.1422,2.02566 2.3025,4.01717 2.931,6.27721 4.2735,15.36475 -17.16353,12.09039 -8.09887,-1.63884 1.35396,-2.05171 3.16327,-3.30224 5.16787,-4.63837 m -57.07786,1.78359 c 6.01153,2.57044 10.72135,2.99622 16.94501,0.89192 -5.3106,6.55408 -11.89083,4.67526 -17.83674,0 l 0.89093,-0.89192"
         style="fill:#1a1a1a;stroke:none;stroke-width:0.237153"
         id="path4"
         sodipodi:nodetypes="cccccssssccccccccccccccccccccccccccccccccccccccccccsscsssscssscccccccscccssccccccccccsccccccscsccccccccccscssccscccsssssssssccccccccccsssccccccccccccccccccccccccccccccccccccccccccccscccccccccccccccccsscccccccccccccccccscsssssssssssssssscssssccscccccccccccccccscccccccccccccccccccccccccccccccccscccccccssscccccccccccccccccccccccccccccccccccccccccccccc" />
    </g>
  </g>
</svg>
